<?xml version="1.0" encoding="UTF-8"?>
<!DOCTYPE svg PUBLIC "-//W3C//DTD SVG 1.1//EN" "http://www.w3.org/Graphics/SVG/1.1/DTD/svg11.dtd">
<!-- Creator: CorelDRAW 2020 (64 Bit) -->
<svg xmlns="http://www.w3.org/2000/svg" xml:space="preserve" width="66.1458mm" height="13.229mm" version="1.1" style="shape-rendering:geometricPrecision; text-rendering:geometricPrecision; image-rendering:optimizeQuality; fill-rule:evenodd; clip-rule:evenodd"
viewBox="0 0 166.26 33.25"
 xmlns:xlink="http://www.w3.org/1999/xlink"
 xmlns:xodm="http://www.corel.com/coreldraw/odm/2003">
 <defs>
  <style type="text/css">
   <![CDATA[
    .fil2 {fill:none}
    .fil1 {fill:#00A859;fill-rule:nonzero}
    .fil0 {fill:#79BEEE;fill-rule:nonzero}
   ]]>
  </style>
   <clipPath id="id0">
    <path d="M-0 33.25l166.26 0 0 -33.25 -166.26 0 0 33.25z"/>
   </clipPath>
 </defs>
 <g id="Camada_x0020_1">
  <metadata id="CorelCorpID_0Corel-Layer"/>
  <g>
  </g>
  <g style="clip-path:url(#id0)">
   <g>
    <path class="fil0" d="M67.61 13.59l-2.28 10.48 -5.95 0 2.28 -10.48c0.18,-0.82 0.08,-0.98 -0.77,-0.98l-2.15 0c-0.84,0 -1.01,0.15 -1.19,0.95 0,0 0,0.01 0,0.02l-2.28 10.48 -5.95 0 2.28 -10.48c0.18,-0.82 0.08,-0.98 -0.77,-0.98l-2.15 0c-0.84,0 -1.01,0.15 -1.19,0.98l-2.28 10.48 -5.95 0 3.5 -16.09 4.83 0 0.77 1.38c0.44,-0.45 0.97,-0.81 1.56,-1.05 0.59,-0.24 1.23,-0.35 1.87,-0.33l1.23 0c2.33,0 3.89,0.99 4.46,2.65 1.04,-1.85 2.54,-2.65 4.36,-2.65l1.23 0c3.49,0 5.27,2.2 4.52,5.61z"/>
    <path class="fil0" d="M85.74 13.59l-1.06 4.87c-0.74,3.41 -3.48,5.61 -6.98,5.61l-4.5 0c-3.49,0 -5.27,-2.2 -4.52,-5.61l1.06 -4.87c0.74,-3.41 3.48,-5.61 6.98,-5.61l4.51 0c3.48,0 5.26,2.2 4.52,5.61zm-5.95 0c0.18,-0.82 0.07,-0.98 -0.77,-0.98l-2.15 0c-0.84,0 -1.01,0.15 -1.19,0.98l-1.06 4.87c-0.18,0.82 -0.07,0.98 0.77,0.98l2.15 0c0.84,0 1.01,-0.15 1.19,-0.98l1.06 -4.87z"/>
    <path class="fil0" d="M122.84 12.31c-0.22,0.91 -0.74,1.73 -1.49,2.32l-3.03 2.44c-0.73,0.6 -1.64,0.93 -2.59,0.95l-4.19 0 -0.09 0.43c-0.18,0.82 -0.07,0.98 0.77,0.98l9.07 0 -1.01 4.63 -10.26 0c-3.49,0 -5.27,-2.2 -4.53,-5.61l1.06 -4.87c0.74,-3.41 3.48,-5.61 6.98,-5.61l4.51 0c3.48,0.01 5.28,2.09 4.8,4.33zm-6.23 1.28c0.18,-0.82 0.08,-0.98 -0.77,-0.98l-2.15 0c-0.84,-0 -1.02,0.15 -1.2,0.98l-0.36 1.68 3.54 0c0.16,-0.01 0.31,-0.06 0.43,-0.16 0.12,-0.1 0.21,-0.23 0.25,-0.38l0.25 -1.13z"/>
    <path class="fil1" d="M129.52 21.34c-0.33,1.51 -1.55,2.73 -3.4,2.73 -1.85,0 -2.53,-1.22 -2.21,-2.73 0.33,-1.51 1.55,-2.73 3.4,-2.73 1.85,0 2.53,1.22 2.2,2.73z"/>
    <polygon class="fil0" points="16.07,2.06 23.62,2.06 17.34,31.2 9.8,31.2 "/>
    <polygon class="fil0" points="27.14,2.06 34.69,2.06 29.8,24.89 22.25,24.89 "/>
    <polygon class="fil0" points="4.89,2.06 12.44,2.06 7.55,24.89 0,24.89 "/>
    <polygon class="fil0" points="107.75,7.98 96.73,24.07 90.65,24.07 86.63,7.98 93.14,7.98 94.89,18.54 101.24,7.99 "/>
    <path class="fil0" d="M148.24 14.34l-1.06 4.87c-0.74,3.41 -3.48,5.61 -6.98,5.61l-4.5 0c-3.49,0 -5.27,-2.2 -4.52,-5.61l1.06 -4.87c0.74,-3.41 3.48,-5.61 6.98,-5.61l4.51 0c3.48,0 5.26,2.2 4.52,5.61zm-5.95 0c0.18,-0.82 0.07,-0.98 -0.77,-0.98l-2.15 0c-0.84,0 -1.01,0.15 -1.19,0.98l-1.06 4.87c-0.18,0.82 -0.07,0.98 0.77,0.98l2.15 0c0.84,0 1.01,-0.15 1.19,-0.98l1.06 -4.87z"/>
    <path class="fil0" d="M166.07 14.32c0,0 0,0.01 0,0.02l-2.28 10.48 -5.95 0 2.28 -10.48c0.18,-0.82 0.07,-0.98 -0.77,-0.98l-2.15 0c-0.84,0 -1.01,0.15 -1.19,0.98l-2.28 10.48 -5.95 0 3.5 -16.09 4.83 0 0.77 1.38c0.44,-0.45 0.97,-0.81 1.56,-1.05 0.59,-0.24 1.23,-0.35 1.87,-0.33l1.23 0c2.33,0 3.92,0.98 4.46,2.65 0.3,0.94 0.36,1.59 0.07,2.93z"/>
   </g>
  </g>
  <polygon class="fil2" points="-0,33.25 166.26,33.25 166.26,0 -0,0 "/>
 </g>
</svg>
