<?xml version="1.0" encoding="UTF-8"?>
<!DOCTYPE svg PUBLIC "-//W3C//DTD SVG 1.1//EN" "http://www.w3.org/Graphics/SVG/1.1/DTD/svg11.dtd">
<!-- Creator: CorelDRAW 2020 (64 Bit) -->
<svg xmlns="http://www.w3.org/2000/svg" xml:space="preserve" width="66.1458mm" height="13.229mm" version="1.1" style="shape-rendering:geometricPrecision; text-rendering:geometricPrecision; image-rendering:optimizeQuality; fill-rule:evenodd; clip-rule:evenodd"
viewBox="0 0 166.73 33.35"
 xmlns:xlink="http://www.w3.org/1999/xlink"
 xmlns:xodm="http://www.corel.com/coreldraw/odm/2003">
 <defs>
  <style type="text/css">
   <![CDATA[
    .fil2 {fill:none}
    .fil0 {fill:#FEFEFE;fill-rule:nonzero}
    .fil1 {fill:#00A859;fill-rule:nonzero}
   ]]>
  </style>
   <clipPath id="id0">
    <path d="M-0 33.35l166.73 0 0 -33.35 -166.73 0 0 33.35z"/>
   </clipPath>
 </defs>
 <g id="Camada_x0020_1">
  <metadata id="CorelCorpID_0Corel-Layer"/>
  <g>
  </g>
  <g style="clip-path:url(#id0)">
   <g>
    <path class="fil0" d="M67.8 13.63l-2.29 10.51 -5.96 0 2.29 -10.51c0.18,-0.83 0.08,-0.98 -0.77,-0.98l-2.15 0c-0.84,0 -1.02,0.15 -1.19,0.96 0,0 0,0.01 0,0.02l-2.29 10.51 -5.97 0 2.29 -10.51c0.18,-0.83 0.08,-0.98 -0.77,-0.98l-2.15 0c-0.85,0 -1.02,0.15 -1.2,0.98l-2.29 10.51 -5.96 0 3.51 -16.13 4.84 0 0.77 1.39c0.44,-0.45 0.98,-0.81 1.57,-1.05 0.59,-0.24 1.23,-0.35 1.87,-0.34l1.24 0c2.33,0 3.9,0.99 4.47,2.66 1.04,-1.86 2.55,-2.66 4.38,-2.66l1.24 0c3.5,0 5.28,2.21 4.53,5.62z"/>
    <path class="fil0" d="M85.98 13.63l-1.06 4.89c-0.74,3.42 -3.49,5.62 -6.99,5.62l-4.52 0c-3.5,0 -5.28,-2.21 -4.54,-5.62l1.06 -4.88c0.74,-3.42 3.49,-5.62 6.99,-5.62l4.52 0c3.49,0 5.28,2.21 4.53,5.62zm-5.97 0c0.18,-0.83 0.07,-0.98 -0.77,-0.98l-2.15 0c-0.85,0 -1.02,0.15 -1.2,0.98l-1.07 4.88c-0.18,0.83 -0.07,0.98 0.77,0.98l2.15 0c0.84,0 1.02,-0.15 1.2,-0.98l1.06 -4.88z"/>
    <path class="fil0" d="M123.19 12.34c-0.22,0.92 -0.74,1.74 -1.5,2.33l-3.04 2.45c-0.73,0.6 -1.64,0.93 -2.59,0.95l-4.2 0 -0.09 0.43c-0.18,0.83 -0.08,0.98 0.77,0.98l9.1 0 -1.01 4.65 -10.29 0c-3.5,0 -5.28,-2.21 -4.54,-5.62l1.06 -4.88c0.74,-3.42 3.49,-5.62 6.99,-5.62l4.53 0c3.49,0.01 5.3,2.1 4.81,4.35zm-6.25 1.28c0.18,-0.83 0.08,-0.98 -0.77,-0.98l-2.15 0c-0.84,-0 -1.02,0.15 -1.2,0.98l-0.36 1.68 3.55 0c0.16,-0.01 0.31,-0.06 0.44,-0.16 0.12,-0.1 0.21,-0.23 0.25,-0.39l0.25 -1.13z"/>
    <path class="fil1" d="M129.89 21.4c-0.33,1.51 -1.55,2.74 -3.41,2.74 -1.85,0 -2.54,-1.23 -2.21,-2.74 0.33,-1.52 1.56,-2.74 3.41,-2.74 1.85,0 2.54,1.22 2.21,2.74z"/>
    <polygon class="fil0" points="16.12,2.06 23.68,2.06 17.39,31.29 9.82,31.29 "/>
    <polygon class="fil0" points="27.22,2.06 34.78,2.06 29.88,24.96 22.31,24.96 "/>
    <polygon class="fil0" points="4.91,2.06 12.47,2.06 7.57,24.96 0,24.96 "/>
    <polygon class="fil0" points="108.06,8 97,24.13 90.91,24.13 86.87,8 93.4,8 95.16,18.6 101.53,8.01 "/>
    <path class="fil0" d="M148.66 14.38l-1.06 4.89c-0.74,3.42 -3.49,5.62 -6.99,5.62l-4.52 0c-3.5,0 -5.28,-2.21 -4.54,-5.62l1.06 -4.88c0.74,-3.42 3.49,-5.62 6.99,-5.62l4.52 0c3.49,0 5.28,2.21 4.53,5.62zm-5.97 0c0.18,-0.83 0.07,-0.98 -0.77,-0.98l-2.15 0c-0.85,0 -1.02,0.15 -1.2,0.98l-1.07 4.88c-0.18,0.83 -0.07,0.98 0.77,0.98l2.15 0c0.84,0 1.02,-0.15 1.2,-0.98l1.06 -4.88z"/>
    <path class="fil0" d="M166.54 14.36c0,0 0,0.01 0,0.02l-2.29 10.51 -5.97 0 2.29 -10.51c0.18,-0.83 0.08,-0.98 -0.77,-0.98l-2.15 0c-0.85,0 -1.02,0.15 -1.2,0.98l-2.29 10.51 -5.96 0 3.51 -16.13 4.84 0 0.77 1.39c0.44,-0.45 0.98,-0.81 1.57,-1.05 0.59,-0.24 1.23,-0.35 1.87,-0.34l1.24 0c2.33,0 3.93,0.98 4.47,2.66 0.3,0.94 0.36,1.59 0.07,2.94z"/>
   </g>
  </g>
  <polygon class="fil2" points="-0,33.35 166.73,33.35 166.73,0 -0,0 "/>
 </g>
</svg>
